<?xml version="1.0" encoding="UTF-8" standalone="no"?>
<!-- Generator: Adobe Illustrator 17.1.0, SVG Export Plug-In . SVG Version: 6.00 Build 0)  -->

<svg
   xmlns:dc="http://purl.org/dc/elements/1.1/"
   xmlns:cc="http://creativecommons.org/ns#"
   xmlns:rdf="http://www.w3.org/1999/02/22-rdf-syntax-ns#"
   xmlns:svg="http://www.w3.org/2000/svg"
   xmlns="http://www.w3.org/2000/svg"
   xmlns:xlink="http://www.w3.org/1999/xlink"
   xmlns:sodipodi="http://sodipodi.sourceforge.net/DTD/sodipodi-0.dtd"
   xmlns:inkscape="http://www.inkscape.org/namespaces/inkscape"
   version="1.0"
   x="0px"
   y="0px"
   width="110px"
   height="110px"
   viewBox="0 0 110 110"
   style="enable-background:new 0 0 110 110;"
   xml:space="preserve"
   id="svg3075"
   inkscape:version="0.48.5 r10040"
   sodipodi:docname="logo.svg"
   inkscape:export-filename="/home/brad/Work/projects/github.com/bitolaco/weather-app.git/app/www/apple-touch-icon-precomposed.png"
   inkscape:export-xdpi="124.36"
   inkscape:export-ydpi="124.36"><metadata
     id="metadata3093"><rdf:RDF><cc:Work
         rdf:about=""><dc:format>image/svg+xml</dc:format><dc:type
           rdf:resource="http://purl.org/dc/dcmitype/StillImage" /><dc:title></dc:title></cc:Work></rdf:RDF></metadata><defs
     id="defs3091"><linearGradient
       id="linearGradient3999"><stop
         style="stop-color:#ffffff;stop-opacity:0.5;"
         offset="0"
         id="stop4001" /><stop
         style="stop-color:#ffffff;stop-opacity:0.1328125;"
         offset="1"
         id="stop4003" /></linearGradient><linearGradient
       id="linearGradient3789"><stop
         style="stop-color:#01445e;stop-opacity:0.2890625;"
         offset="0"
         id="stop3791" /><stop
         style="stop-color:#00b8e3;stop-opacity:0.3359375;"
         offset="1"
         id="stop3793" /></linearGradient><linearGradient
       inkscape:collect="always"
       xlink:href="#linearGradient3789"
       id="linearGradient3795"
       x1="623.28131"
       y1="43.760406"
       x2="623.28131"
       y2="614.01062"
       gradientUnits="userSpaceOnUse" /><filter
       style="color-interpolation-filters:sRGB;"
       inkscape:label="Drop Shadow"
       id="filter3985"><feFlood
         flood-opacity="0.15"
         flood-color="rgb(0,0,0)"
         result="flood"
         id="feFlood3987" /><feComposite
         in="flood"
         in2="SourceGraphic"
         operator="in"
         result="composite1"
         id="feComposite3989" /><feGaussianBlur
         in="composite"
         stdDeviation="2"
         result="blur"
         id="feGaussianBlur3991" /><feOffset
         dx="4"
         dy="4"
         result="offset"
         id="feOffset3993" /><feComposite
         in="SourceGraphic"
         in2="offset"
         operator="over"
         result="composite2"
         id="feComposite3995" /></filter><linearGradient
       inkscape:collect="always"
       xlink:href="#linearGradient3789-4"
       id="linearGradient3795-9"
       x1="623.28131"
       y1="43.760406"
       x2="623.28131"
       y2="614.01062"
       gradientUnits="userSpaceOnUse" /><linearGradient
       id="linearGradient3789-4"><stop
         style="stop-color:#01445e;stop-opacity:0.515625;"
         offset="0"
         id="stop3791-9" /><stop
         style="stop-color:#00b8e3;stop-opacity:0.3359375;"
         offset="1"
         id="stop3793-0" /></linearGradient><linearGradient
       inkscape:collect="always"
       xlink:href="#linearGradient3789-4"
       id="linearGradient4021"
       x1="623.28131"
       y1="43.760406"
       x2="623.28131"
       y2="614.01062"
       gradientUnits="userSpaceOnUse" /><linearGradient
       id="linearGradient4023"><stop
         style="stop-color:#01445e;stop-opacity:0.515625;"
         offset="0"
         id="stop4025" /><stop
         style="stop-color:#00b8e3;stop-opacity:0.3359375;"
         offset="1"
         id="stop4027" /></linearGradient><linearGradient
       y2="614.01062"
       x2="623.28131"
       y1="43.760406"
       x1="623.28131"
       gradientUnits="userSpaceOnUse"
       id="linearGradient4031"
       xlink:href="#linearGradient3789-4"
       inkscape:collect="always" /><linearGradient
       y2="614.01062"
       x2="623.28131"
       y1="43.760406"
       x1="623.28131"
       gradientUnits="userSpaceOnUse"
       id="linearGradient4033"
       xlink:href="#linearGradient3789-4"
       inkscape:collect="always" /><linearGradient
       inkscape:collect="always"
       xlink:href="#linearGradient3789-4"
       id="linearGradient4106"
       gradientUnits="userSpaceOnUse"
       x1="623.28131"
       y1="43.760406"
       x2="623.28131"
       y2="614.01062" /><linearGradient
       inkscape:collect="always"
       xlink:href="#linearGradient3789-4"
       id="linearGradient4108"
       gradientUnits="userSpaceOnUse"
       x1="623.28131"
       y1="43.760406"
       x2="623.28131"
       y2="614.01062" /></defs><sodipodi:namedview
     pagecolor="#ffffff"
     bordercolor="#666666"
     borderopacity="1"
     objecttolerance="10"
     gridtolerance="10"
     guidetolerance="10"
     inkscape:pageopacity="0"
     inkscape:pageshadow="2"
     inkscape:window-width="1280"
     inkscape:window-height="776"
     id="namedview3089"
     showgrid="true"
     showguides="true"
     inkscape:guide-bbox="true"
     inkscape:zoom="5.1089582"
     inkscape:cx="4.4452893"
     inkscape:cy="53.448193"
     inkscape:window-x="0"
     inkscape:window-y="0"
     inkscape:window-maximized="1"
     inkscape:current-layer="g6084"><inkscape:grid
       type="xygrid"
       id="grid3211"
       empspacing="5"
       visible="true"
       enabled="true"
       snapvisiblegridlinesonly="true"
       spacingx="4px"
       spacingy="4px"
       dotted="false" /></sodipodi:namedview><g
     id="Artboard" /><g
     id="g6084"><circle
       style="fill:#25b7d3"
       cx="55"
       cy="55"
       r="55"
       id="circle3079"
       d="M 110,55 C 110,85.375661 85.375661,110 55,110 24.624339,110 0,85.375661 0,55 0,24.624339 24.624339,0 55,0 c 30.375661,0 55,24.624339 55,55 z"
       sodipodi:cx="55"
       sodipodi:cy="55"
       sodipodi:rx="55"
       sodipodi:ry="55" /><g
       style="filter:url(#filter3985)"
       transform="matrix(0.9517544,0,0,0.9517544,2.3624177,1.8872794)"
       id="g3213"><g
         transform="matrix(0.1123158,0,0,0.1123158,77.150424,-22.810016)"
         id="g70"
         style="fill:#ffbf16;fill-opacity:1"><g
           id="g72"
           style="fill:#ffbf16;fill-opacity:1"
           transform="matrix(1.0037163,0,0,1.0037163,-552.29948,360.87047)"><path
             style="fill:#ffbf16;fill-rule:evenodd;fill-opacity:1"
             inkscape:connector-curvature="0"
             clip-rule="evenodd"
             d="m 256,144 c -61.75,0 -112,50.25 -112,112 0,61.75 50.25,112 112,112 61.75,0 112,-50.25 112,-112 0,-61.75 -50.25,-112 -112,-112 z m 0,-32 c 8.833,0 16,-7.167 16,-16 l 0,-32 c 0,-8.833 -7.167,-16 -16,-16 -8.833,0 -16,7.167 -16,16 l 0,32 c 0,8.833 7.167,16 16,16 z m 0,288 c -8.833,0 -16,7.167 -16,16 l 0,32 c 0,8.833 7.167,16 16,16 8.833,0 16,-7.167 16,-16 l 0,-32 c 0,-8.833 -7.167,-16 -16,-16 z m 124.438,-245.833 22.625,-22.625 c 6.25,-6.25 6.25,-16.375 0,-22.625 -6.25,-6.25 -16.375,-6.25 -22.625,0 l -22.625,22.625 c -6.25,6.25 -6.25,16.375 0,22.625 6.249,6.25 16.375,6.25 22.625,0 z m -248.876,203.667 -22.625,22.625 c -6.25,6.249 -6.25,16.374 0,22.624 6.25,6.25 16.375,6.25 22.625,0 l 22.625,-22.624 c 6.25,-6.271 6.25,-16.376 0,-22.625 -6.249,-6.251 -16.375,-6.272 -22.625,0 z M 112,256 c 0,-8.833 -7.167,-16 -16,-16 l -32,0 c -8.833,0 -16,7.167 -16,16 0,8.833 7.167,16 16,16 l 32,0 c 8.833,0 16,-7.167 16,-16 z m 336,-16 -32,0 c -8.833,0 -16,7.167 -16,16 0,8.833 7.167,16 16,16 l 32,0 c 8.833,0 16,-7.167 16,-16 0,-8.833 -7.167,-16 -16,-16 z M 131.541,154.167 c 6.251,6.25 16.376,6.25 22.625,0 6.251,-6.25 6.251,-16.375 0,-22.625 l -22.625,-22.625 c -6.25,-6.25 -16.374,-6.25 -22.625,0 -6.25,6.25 -6.25,16.375 0,22.625 z m 248.918,203.645 c -6.271,-6.25 -16.376,-6.25 -22.625,0 -6.251,6.25 -6.271,16.375 0,22.625 l 22.625,22.625 c 6.249,6.25 16.374,6.25 22.624,0 6.25,-6.25 6.25,-16.374 0,-22.625 z"
             id="path74"
             sodipodi:nodetypes="sssssssssssssssssssssssscsccsccccsssssssssssssscccscscccccscc" /></g></g><g
         id="g3081"
         transform="matrix(0.8809488,0,0,0.8809488,11.738178,16.512514)"><path
           inkscape:connector-curvature="0"
           id="path3083"
           d="M 82.027267,48.523477 C 83.291081,36.918271 72.157063,27 60.946099,27 51.118059,27 40.927424,34.627784 39.961906,44.39974 30.826382,42.998982 23,50.241611 23,59.275533 c 0,8.318481 6.606838,15.061915 14.756816,15.061915 h 40.054216 c 6.985244,0 12.648699,-5.780548 12.648699,-12.910213 0,-7.245857 -5.270291,-12.903758 -8.432464,-12.903758 z"
           style="fill:#ffffff" /></g></g><path
       transform="matrix(1.4595082,0,0,1.4595082,33.114529,-7.7660073)"
       d="m 52.000002,43.004902 a 37.004902,37.004902 0 1 1 -74.009804,0 37.004902,37.004902 0 1 1 74.009804,0 z"
       sodipodi:ry="37.004902"
       sodipodi:rx="37.004902"
       sodipodi:cy="43.004902"
       sodipodi:cx="14.9951"
       id="path3997"
       style="fill:none;stroke:none;stroke-width:1.35805010999999998;stroke-linecap:round;stroke-linejoin:round;stroke-miterlimit:4;stroke-opacity:1;stroke-dasharray:none"
       sodipodi:type="arc" /></g></svg>